# xmcd
#
# Track frame offsets:
#	150
#	15722
#	33010
#	45555
#	64390
#	84745
#	104632
#	115929
#	134317
#	155437
#	178442
#	193777
#	206652
#	222842
#	236022
#	248717
#	262887
#	277355
#	295810
#	313617
#
# Disc length: 4466 seconds
#
# Revision: 1
# Processed by: cddbd v1.4PL0 Copyright (c) Steve Scherf et al.
# Submitted via: audiograbber 1.81.02
#
DISCID=33117014
DTITLE=SHIRLEY BASSEY - 20 SUPER SUCESSOS
DYEAR=2002
DGENRE=Rock
TTITLE0=SOMETHING
TTITLE1=THIS IS MY LIFE
TTITLE2=GOLDFINGER
TTITLE3=NATALIE
TTITLE4=AND I LOVE YOU SO
TTITLE5=NEVER NEVER NEVER
TTITLE6=FOR ALL WE KNOW
TTITLE7=ALL BY MYSELF
TTITLE8=SOLITAIRE
TTITLE9=THIS MASQUERADE
TTITLE10=NEW YORK NEW YORK
TTITLE11=IF AND WHEN
TTITLE12=KISS ME HONEY HONEY
TTITLE13=WHAT NOW, MY LOVE?
TTITLE14=I WHO HAVE NOTHING
TTITLE15=CAN YOU READ MY MIND
TTITLE16=ONLY WHEN I LAUNCH
TTITLE17=WE DONT CRY OUT LOUD
TTITLE18=NEW YORK STATE OF MIND
TTITLE19=HOW DO YOU KEEP THE MUSIC PLAYING
EXTD=
EXTT0=
EXTT1=
EXTT2=
EXTT3=
EXTT4=
EXTT5=
EXTT6=
EXTT7=
EXTT8=
EXTT9=
EXTT10=
EXTT11=
EXTT12=
EXTT13=
EXTT14=
EXTT15=
EXTT16=
EXTT17=
EXTT18=
EXTT19=
PLAYORDER=
